# xmcd
#
# Track frame offsets: 
#        150
#        11112
#        23835
#        35976
#        49697
#        61958
#        73056
#        84365
#        94485
#        110276
#        122835
#
# Disc length: 1818 seconds
#
# Revision: 0
# Processed by: cddbd v1.5.2PL0 Copyright (c) Steve Scherf et al.
# Submitted via: ExactAudioCopyFreeDBPlugin 1.0
#
DISCID=9607180b
DTITLE=Don Williams - Forever Gold
DYEAR=1900
DGENRE=Country
TTITLE0=Always Something There To Remind Me
TTITLE1=Coming Apart
TTITLE2=Follow Me To Louisville
TTITLE3=Ruby Tuesday
TTITLE4=Woman
TTITLE5=Spend Sone Time
TTITLE6=Storybook Children
TTITLE7=Take My Hand For A While
TTITLE8=Tears
TTITLE9=There's Never Been A Time
TTITLE10=Where Do We Go From Here
EXTD=
EXTT0=
EXTT1=
EXTT2=
EXTT3=
EXTT4=
EXTT5=
EXTT6=
EXTT7=
EXTT8=
EXTT9=
EXTT10=
PLAYORDER=
